<?xml version="1.0" standalone="no"?>
<!DOCTYPE svg PUBLIC "-//W3C//DTD SVG 20010904//EN"
 "http://www.w3.org/TR/2001/REC-SVG-20010904/DTD/svg10.dtd">
<svg version="1.0" xmlns="http://www.w3.org/2000/svg"
 width="956.000000pt" height="835.000000pt" viewBox="0 0 956.000000 835.000000"
 preserveAspectRatio="xMidYMid meet">

<g transform="translate(0.000000,835.000000) scale(0.100000,-0.100000)"
fill="#000000" stroke="none">
<path d="M4638 8327 c-154 -53 -287 -195 -314 -332 l-5 -31 -155 -17 c-194
-22 -398 -57 -595 -102 l-153 -35 -67 73 c-88 96 -162 137 -262 144 -167 13
-332 -80 -451 -255 -50 -73 -102 -191 -112 -253 -6 -38 -9 -40 -138 -107 -436
-229 -792 -494 -1126 -838 -166 -171 -280 -312 -414 -514 -301 -450 -470 -889
-542 -1408 l-17 -122 -74 -40 c-95 -51 -137 -85 -174 -140 -29 -42 -31 -49
-27 -121 4 -65 9 -84 37 -127 65 -101 167 -178 356 -268 119 -57 363 -144 401
-144 21 0 24 -5 24 -40 0 -70 39 -343 70 -494 224 -1075 875 -2001 1811 -2573
516 -316 1070 -500 1694 -564 176 -19 588 -16 773 5 1667 183 3016 1354 3426
2974 36 139 76 364 95 530 l16 143 164 55 c401 132 620 283 666 460 13 52 13
64 0 110 -19 66 -105 148 -204 196 -63 30 -70 36 -70 63 -1 43 -47 305 -72
410 -227 960 -904 1812 -1879 2367 -63 36 -152 84 -196 106 -77 39 -82 43 -88
80 -10 63 -62 181 -112 254 -119 175 -284 268 -451 255 -100 -8 -174 -48 -263
-144 l-68 -74 -78 20 c-201 50 -561 112 -739 127 l-81 7 -17 57 c-36 125 -156
251 -284 301 -89 34 -218 37 -305 6z m259 -167 c63 -27 129 -92 159 -155 l24
-50 0 -1482 0 -1483 -300 0 -300 0 2 1493 c3 1432 4 1493 22 1527 23 45 92
117 131 137 88 47 175 51 262 13z m-1738 -322 c9 -7 31 -25 48 -42 32 -29 33
-30 14 -50 -32 -36 -49 -114 -65 -301 -56 -642 -86 -1352 -86 -2062 l0 -443
-47 -1 c-27 0 -131 -6 -233 -13 -102 -8 -187 -12 -190 -9 -11 10 -11 563 -1
993 12 461 29 827 56 1200 8 113 17 241 19 285 8 137 66 267 165 365 61 60
107 87 174 99 47 8 121 -3 146 -21z m3469 -5 c48 -22 141 -115 177 -177 47
-81 76 -174 81 -261 2 -44 11 -172 19 -285 27 -373 44 -739 56 -1200 10 -430
10 -983 -1 -993 -3 -3 -93 1 -200 9 -107 7 -212 13 -232 14 l-38 0 0 443 c0
707 -30 1421 -85 2057 -17 196 -28 247 -61 296 l-23 33 46 40 c28 25 59 43 82
47 20 3 40 7 46 8 18 5 96 -13 133 -31z m-2308 -1443 l0 -1410 -177 0 c-188 0
-664 -15 -820 -26 l-93 -6 0 274 c0 581 27 1372 66 1898 17 236 41 490 46 495
9 9 287 77 423 104 152 30 401 67 538 79 16 2 17 -71 17 -1408z m1130 1385
c183 -22 392 -62 589 -111 96 -24 176 -45 178 -48 6 -6 29 -246 47 -496 39
-526 66 -1317 66 -1898 l0 -274 -87 7 c-153 10 -639 25 -824 25 l-179 0 0
1411 0 1410 43 -5 c23 -3 98 -13 167 -21z m-2966 -721 c-35 -483 -54 -1064
-54 -1671 l0 -482 -52 -5 c-29 -3 -152 -15 -273 -26 -613 -58 -1231 -159
-1555 -254 -47 -13 -86 -23 -87 -22 -8 7 43 273 78 405 232 894 879 1685 1803
2202 138 77 141 79 147 55 4 -13 1 -104 -7 -202z m4766 128 c688 -388 1254
-975 1560 -1615 134 -280 219 -543 264 -817 9 -52 19 -110 22 -129 5 -30 3
-33 -13 -26 -53 21 -391 100 -552 130 -317 58 -798 121 -1176 154 -66 6 -144
14 -172 17 l-53 5 0 482 c0 606 -19 1188 -54 1669 -7 98 -11 189 -9 203 6 29
-3 32 183 -73z m-1580 -2372 c516 -15 1176 -49 1320 -67 30 -4 58 -6 63 -5 13
4 450 -37 682 -64 862 -98 1493 -251 1630 -394 39 -41 28 -79 -44 -150 -63
-61 -192 -133 -356 -198 -80 -32 -227 -82 -240 -82 -1 0 -5 39 -7 87 -4 78 -7
88 -31 109 -15 13 -42 25 -60 28 -17 2 -140 21 -272 40 -1056 158 -2272 230
-3730 220 -1075 -7 -1945 -53 -2760 -145 -387 -44 -945 -133 -1004 -162 -35
-17 -51 -52 -51 -114 0 -29 -5 -53 -10 -53 -6 0 -68 21 -138 46 -284 103 -467
221 -487 316 -10 42 28 78 139 132 227 110 654 208 1266 290 186 25 730 82
870 91 41 2 131 9 200 14 277 23 917 53 1345 64 288 8 1393 6 1675 -3z m65
-650 c1045 -32 1885 -99 2575 -206 173 -27 238 -39 246 -47 9 -9 -17 -341 -37
-482 -156 -1079 -749 -2021 -1649 -2619 -188 -126 -332 -206 -516 -290 -546
-249 -1076 -357 -1677 -343 -566 14 -1071 136 -1572 382 -658 323 -1209 828
-1578 1445 -311 519 -490 1089 -537 1710 -5 74 -12 144 -16 156 -5 19 2 22
113 43 660 125 1691 217 2793 250 383 12 1492 12 1855 1z"/>
<path d="M2930 3800 c-179 -13 -521 -50 -608 -65 -204 -37 -377 -139 -439
-259 -22 -44 -25 -64 -29 -188 -11 -351 96 -636 322 -862 90 -90 171 -146 287
-201 133 -63 227 -86 377 -92 203 -8 379 39 543 146 362 237 533 703 417 1133
-11 40 -25 94 -30 120 -14 71 -64 161 -111 201 -73 63 -104 69 -379 72 -135 2
-292 0 -350 -5z m598 -177 c17 -8 32 -20 32 -26 0 -6 16 -49 36 -95 107 -248
96 -552 -27 -781 -82 -153 -194 -265 -341 -341 -301 -157 -669 -96 -926 153
-175 170 -269 381 -279 627 -7 162 8 257 45 293 59 57 230 119 362 132 36 3
144 15 240 27 170 20 618 37 760 29 36 -2 80 -10 98 -18z"/>
<path d="M6060 3800 c-71 -9 -117 -29 -164 -70 -43 -38 -92 -130 -106 -198 -5
-26 -19 -80 -30 -120 -116 -430 55 -896 417 -1133 164 -107 340 -154 543 -146
150 6 244 29 377 92 116 55 197 111 287 201 226 226 333 511 322 862 -4 123
-7 144 -29 188 -62 122 -257 233 -463 264 -104 15 -448 50 -597 60 -153 11
-477 11 -557 0z m445 -164 c125 -3 291 -13 385 -24 91 -11 197 -23 235 -27 96
-9 177 -31 265 -71 107 -50 126 -71 141 -157 18 -112 7 -303 -25 -411 -159
-534 -718 -804 -1174 -566 -147 76 -259 188 -341 341 -123 229 -134 533 -27
781 20 46 36 88 36 94 0 30 111 53 235 47 28 -1 149 -5 270 -7z"/>
<path d="M4190 2209 c-122 -9 -348 -68 -459 -120 -144 -67 -334 -226 -381
-318 -23 -46 -70 -188 -70 -213 0 -36 25 -68 67 -89 l44 -21 146 46 146 46 28
-25 c55 -46 177 -46 318 1 l80 26 31 -26 c18 -14 39 -26 48 -27 78 -5 180 18
401 88 200 64 181 64 406 -8 173 -57 304 -84 377 -80 9 1 30 13 48 27 l31 26
80 -26 c141 -47 263 -47 318 -1 l28 25 146 -46 146 -46 44 21 c42 21 67 53 67
89 0 25 -47 167 -70 213 -47 92 -237 251 -381 318 -124 58 -327 109 -479 120
-144 11 -1018 11 -1160 0z m1355 -196 c158 -42 234 -74 322 -135 116 -80 266
-250 197 -224 -8 3 -52 17 -97 30 -45 13 -111 35 -146 50 -87 35 -122 34 -155
-5 -14 -17 -26 -39 -26 -50 0 -25 -12 -24 -97 6 -117 41 -233 67 -261 60 -33
-8 -62 -33 -62 -53 0 -20 -61 -10 -159 28 -42 16 -122 41 -178 55 l-103 26
-102 -25 c-57 -14 -137 -39 -179 -56 -97 -37 -159 -48 -159 -28 0 20 -29 45
-62 53 -28 7 -144 -19 -261 -60 -85 -30 -97 -31 -97 -6 0 11 -12 33 -26 50
-33 39 -68 40 -155 5 -35 -15 -101 -37 -146 -50 -45 -13 -89 -27 -97 -30 -36
-14 -12 30 54 100 83 87 190 164 280 200 70 29 233 73 315 86 28 4 327 7 665
6 l615 -1 120 -32z"/>
</g>
</svg>
