<?xml version="1.0" standalone="no"?>
<!DOCTYPE svg PUBLIC "-//W3C//DTD SVG 20010904//EN"
 "http://www.w3.org/TR/2001/REC-SVG-20010904/DTD/svg10.dtd">
<svg version="1.0" xmlns="http://www.w3.org/2000/svg"
 width="1080.000000pt" height="1080.000000pt" viewBox="0 0 1080.000000 1080.000000"
 preserveAspectRatio="xMidYMid meet">

<g transform="translate(0.000000,1080.000000) scale(0.100000,-0.100000)"
fill="#000000" stroke="none">
<path d="M5285 9918 c-22 -6 -42 -14 -45 -18 -3 -4 -31 -19 -63 -33 -111 -50
-239 -206 -273 -332 l-11 -40 -169 -17 c-216 -22 -445 -57 -461 -70 -7 -6 -20
-8 -28 -4 -9 3 -23 1 -33 -4 -9 -5 -75 -21 -147 -36 -71 -15 -140 -29 -151
-31 -17 -4 -32 9 -68 55 -72 91 -186 172 -242 172 -13 0 -26 5 -30 11 -10 17
-181 5 -219 -15 -16 -9 -37 -16 -45 -16 -26 0 -116 -62 -176 -120 -81 -78
-141 -160 -175 -238 -17 -37 -37 -81 -45 -99 -8 -17 -18 -53 -23 -80 -5 -26
-15 -49 -21 -51 -27 -9 -283 -144 -332 -175 -29 -19 -60 -36 -69 -39 -8 -3
-50 -29 -93 -57 -43 -28 -81 -51 -85 -51 -3 0 -49 -31 -101 -70 -52 -38 -125
-90 -162 -115 -38 -25 -68 -50 -68 -55 0 -6 -6 -10 -12 -10 -14 0 -192 -153
-299 -256 -37 -35 -71 -64 -75 -64 -5 0 -34 -28 -64 -62 -30 -34 -79 -84 -108
-112 -28 -28 -52 -57 -52 -63 0 -6 -18 -26 -40 -43 -22 -17 -40 -36 -40 -41 0
-5 -29 -44 -64 -87 -78 -95 -201 -258 -218 -292 -7 -13 -21 -32 -30 -42 -10
-10 -18 -23 -18 -28 0 -6 -19 -39 -41 -73 -23 -34 -76 -127 -117 -207 -41 -80
-78 -149 -83 -155 -4 -5 -19 -41 -34 -80 -14 -38 -32 -79 -39 -90 -7 -11 -30
-74 -51 -140 -21 -66 -41 -125 -46 -130 -4 -6 -22 -67 -39 -135 -17 -69 -35
-134 -40 -145 -10 -23 -44 -223 -63 -370 l-12 -100 -60 -30 c-33 -16 -62 -33
-65 -36 -3 -3 -20 -14 -39 -23 -42 -22 -114 -94 -136 -137 -22 -41 -22 -147
-1 -207 28 -78 156 -215 233 -248 17 -7 38 -20 46 -28 8 -8 56 -36 108 -61 90
-44 115 -55 219 -92 25 -9 47 -19 50 -22 6 -8 96 -35 170 -51 30 -7 60 -14 66
-15 7 -2 14 -45 18 -107 13 -192 61 -515 86 -573 4 -11 27 -98 50 -194 23 -96
49 -193 59 -215 10 -23 31 -81 46 -131 16 -49 46 -127 67 -173 21 -45 38 -87
38 -93 0 -7 15 -41 34 -78 52 -103 86 -177 86 -188 0 -6 7 -13 15 -17 8 -3 14
-9 13 -13 -2 -4 17 -42 40 -83 24 -41 51 -88 60 -105 50 -89 185 -293 254
-382 43 -56 78 -105 78 -108 0 -3 35 -47 77 -98 108 -129 436 -454 573 -568
122 -101 274 -219 283 -219 3 0 18 -11 33 -25 15 -14 31 -25 37 -25 5 0 30
-15 56 -33 113 -80 242 -154 436 -251 192 -95 292 -140 365 -166 36 -12 70
-26 75 -30 6 -4 60 -23 120 -41 61 -18 112 -36 115 -40 3 -3 66 -21 140 -39
74 -17 156 -38 181 -46 47 -15 229 -47 334 -59 33 -4 65 -11 70 -15 40 -31
735 -46 990 -22 186 18 416 51 442 64 11 6 26 7 32 3 7 -4 17 -2 24 3 7 5 39
15 72 22 109 21 310 71 320 80 5 4 62 24 127 43 64 20 141 47 172 61 31 14 60
26 64 26 38 0 466 209 580 283 24 16 51 31 60 34 9 3 56 32 104 65 48 32 92
58 97 58 6 0 14 6 18 13 4 6 33 28 63 48 30 20 97 69 147 110 51 41 112 89
136 107 74 55 333 309 462 454 125 140 285 340 285 356 0 5 11 21 25 36 14 15
25 29 25 31 0 2 32 51 70 108 39 57 70 109 70 116 0 6 5 11 11 11 5 0 8 4 5 9
-4 5 -2 11 3 13 13 4 65 99 162 298 115 234 125 257 150 330 12 36 28 74 34
85 7 11 25 63 41 115 15 52 31 100 35 105 8 11 62 217 74 280 4 22 11 45 15
50 5 6 20 87 35 180 15 94 30 177 35 185 4 9 13 80 21 158 l12 142 67 20 c37
11 73 20 80 20 6 0 26 7 43 15 29 13 205 79 250 92 9 3 17 9 17 14 0 5 6 9 13
9 23 0 169 75 232 119 89 62 182 158 211 218 38 77 38 182 0 247 -33 57 -117
124 -213 172 -68 33 -73 38 -73 68 0 62 -55 407 -70 441 -5 11 -19 61 -30 110
-22 95 -55 206 -71 240 -5 11 -25 67 -44 125 -20 58 -49 132 -64 165 -83 174
-168 343 -188 373 -13 18 -33 52 -44 75 -12 23 -48 81 -80 129 -33 48 -59 91
-59 95 0 5 -9 15 -20 23 -11 8 -20 18 -20 23 0 8 -52 79 -119 162 -23 28 -68
84 -100 125 -136 174 -584 593 -732 685 -9 6 -52 36 -95 68 -106 78 -220 155
-269 182 -22 12 -88 51 -146 86 -58 35 -156 89 -217 119 -89 44 -113 60 -117
80 -25 106 -43 156 -82 230 -53 99 -65 115 -141 194 -78 81 -175 142 -254 161
-79 19 -177 19 -245 1 -71 -19 -172 -93 -229 -167 -36 -48 -51 -60 -68 -56
-11 2 -84 17 -161 33 -77 16 -142 31 -145 35 -6 7 -25 10 -250 44 -91 14 -179
25 -196 25 -17 0 -34 3 -38 8 -4 4 -53 12 -109 17 l-101 10 -7 35 c-28 134
-151 286 -277 341 -37 16 -76 35 -87 41 -26 16 -228 20 -280 6z m263 -200 c56
-28 134 -97 163 -145 27 -43 57 -173 40 -173 -3 0 -5 -404 -3 -897 2 -494 0
-1223 -3 -1620 l-7 -723 -336 0 -335 0 7 1553 c4 853 9 1608 12 1677 l5 125
42 63 c48 71 136 139 207 159 60 17 152 8 208 -19z m-1965 -354 c50 -31 97
-74 97 -88 0 -5 -8 -19 -19 -30 -41 -46 -52 -107 -71 -411 -7 -93 -15 -179
-20 -190 -10 -24 -26 -291 -40 -690 -6 -159 -16 -303 -21 -320 -6 -19 -13
-316 -16 -776 l-6 -746 -246 -12 c-135 -7 -253 -15 -262 -17 -15 -4 -18 15
-24 168 -7 178 7 1028 24 1408 22 501 44 876 51 885 7 9 20 173 25 331 3 91
25 163 75 248 22 37 40 70 40 72 0 2 10 14 23 26 12 13 33 38 46 56 13 17 29
32 34 32 6 0 18 6 26 14 80 69 207 87 284 40z m3886 -15 c159 -71 298 -294
306 -489 6 -159 17 -316 22 -330 3 -8 5 -47 4 -86 -2 -45 2 -74 9 -79 7 -4 11
-38 10 -93 -1 -48 0 -94 3 -102 11 -30 30 -576 32 -932 2 -201 6 -371 9 -376
6 -9 -11 -793 -16 -797 -5 -3 -503 26 -516 31 -11 3 -12 89 -7 481 9 585 -5
1116 -50 1898 -9 149 -20 279 -25 290 -4 11 -14 95 -20 187 -12 168 -25 234
-57 288 -16 28 -16 30 3 51 10 12 39 35 63 51 39 24 55 28 115 28 49 0 85 -7
115 -21z m-2573 -1611 c-5 -865 -10 -1575 -13 -1578 -2 -2 -176 -8 -386 -12
-210 -4 -479 -12 -597 -17 -159 -6 -217 -6 -222 3 -17 25 4 1552 22 1591 4 11
11 99 14 195 10 292 37 744 46 765 4 11 14 101 21 200 6 99 15 191 19 204 7
29 5 28 225 77 88 20 167 38 175 41 8 4 23 5 33 4 10 -1 24 2 30 7 14 12 286
55 447 71 58 6 119 13 135 15 17 1 36 4 44 5 12 1 13 -229 7 -1571z m1179
1557 c44 -4 85 -10 90 -15 6 -4 39 -10 75 -14 94 -9 362 -54 385 -65 11 -5 47
-14 80 -21 119 -23 231 -51 262 -65 17 -8 38 -15 46 -15 18 0 24 -30 32 -165
3 -55 10 -109 15 -120 14 -33 53 -735 70 -1260 23 -763 24 -1396 2 -1432 -5
-8 -64 -9 -202 -3 -107 5 -367 12 -578 16 -211 4 -385 11 -388 16 -3 4 -14 8
-24 8 -20 0 -20 23 -14 1563 3 859 8 1568 10 1575 3 9 14 12 31 8 16 -2 64 -8
108 -11z m-3224 -592 c3 -71 -4 -189 -11 -198 -8 -10 -22 -270 -40 -715 -6
-140 -15 -316 -20 -390 -6 -74 -10 -403 -10 -731 l0 -596 -57 -6 c-32 -4 -101
-9 -153 -13 -52 -4 -101 -11 -108 -17 -7 -5 -36 -7 -67 -4 -29 3 -55 2 -57 -2
-2 -4 -104 -17 -228 -29 -312 -32 -701 -81 -725 -92 -11 -5 -81 -18 -155 -30
-163 -26 -379 -68 -400 -77 -8 -4 -70 -21 -138 -38 l-123 -31 5 25 c3 15 7 49
11 76 11 87 45 269 55 290 5 11 21 65 36 120 37 142 37 139 43 145 3 3 21 52
40 110 18 58 41 119 51 135 10 17 21 41 25 55 14 46 116 249 171 341 30 49 54
94 54 99 0 6 4 10 8 10 5 0 15 12 22 28 17 33 84 131 157 229 29 39 53 76 53
83 0 6 7 13 15 17 9 3 30 26 47 52 17 25 44 60 60 76 15 17 50 55 76 85 70 81
266 280 275 280 5 0 48 36 95 79 125 115 425 345 510 391 15 8 59 36 97 61 39
25 86 54 105 65 19 10 37 21 40 24 3 3 44 26 93 50 48 24 87 47 87 51 0 7 22
15 48 18 7 0 12 -11 13 -26z m5164 -3 c4 -6 36 -24 73 -41 36 -16 73 -36 82
-43 8 -8 42 -28 75 -45 33 -17 125 -76 205 -131 80 -55 163 -112 185 -127 79
-52 274 -213 411 -340 141 -132 334 -333 334 -350 0 -5 14 -19 30 -31 17 -13
30 -27 30 -32 0 -6 40 -60 88 -120 49 -61 95 -123 103 -138 13 -26 125 -197
154 -237 8 -10 15 -22 15 -26 0 -4 16 -35 35 -69 19 -34 35 -68 35 -75 0 -8 6
-18 13 -22 6 -4 25 -37 41 -73 15 -36 41 -92 57 -125 15 -33 42 -100 60 -150
17 -49 37 -103 44 -120 16 -38 59 -183 75 -255 7 -30 16 -59 20 -65 8 -10 44
-203 55 -290 3 -27 9 -62 11 -77 l5 -26 -78 20 c-43 11 -82 23 -88 28 -5 5
-82 22 -170 40 -88 17 -167 35 -177 40 -9 5 -110 23 -225 40 -114 17 -215 35
-224 40 -8 4 -121 20 -250 35 -129 14 -243 30 -254 35 -19 8 -370 43 -578 56
-54 4 -100 11 -103 15 -3 5 -19 9 -35 9 l-30 0 2 713 c3 687 -12 1350 -31
1370 -4 5 -6 44 -3 87 3 43 2 87 -3 97 -9 21 -31 325 -25 366 3 27 24 36 36
17z m-1945 -2740 c102 -5 367 -14 590 -20 223 -6 488 -17 590 -25 274 -22 639
-47 770 -51 63 -3 117 -9 118 -14 2 -6 24 -10 49 -10 74 0 596 -50 618 -59 11
-5 123 -21 250 -36 126 -15 234 -30 240 -35 5 -4 35 -10 65 -14 109 -13 365
-58 375 -66 6 -4 28 -10 50 -14 92 -16 271 -57 287 -66 9 -5 59 -21 110 -35
51 -15 102 -32 113 -39 11 -7 52 -25 90 -39 86 -33 185 -108 185 -140 0 -39
-44 -100 -110 -154 -74 -61 -285 -168 -400 -203 -41 -13 -79 -26 -85 -31 -8
-6 -140 -49 -150 -49 -2 0 -5 43 -7 95 -3 91 -4 96 -34 126 -29 29 -40 32
-120 40 -91 8 -228 30 -299 47 -22 6 -146 22 -275 37 -129 15 -242 30 -250 35
-9 4 -159 20 -335 35 -176 15 -329 31 -340 35 -21 8 -420 36 -670 46 -77 3
-149 9 -160 14 -33 14 -1062 48 -1725 56 -540 7 -1499 -13 -2135 -46 -470 -24
-1055 -68 -1077 -80 -10 -6 -31 -10 -48 -10 -93 0 -890 -95 -925 -110 -11 -5
-110 -24 -220 -42 -246 -41 -248 -42 -253 -152 -2 -42 -6 -76 -9 -76 -16 0
-176 53 -211 70 -22 11 -47 20 -53 20 -28 0 -249 116 -316 166 -112 83 -152
149 -120 198 18 26 109 89 147 101 14 4 48 18 75 30 71 32 156 60 260 86 50
12 95 26 100 30 12 9 332 72 450 89 44 6 89 15 100 20 30 14 346 55 645 85
146 15 272 31 282 35 9 5 33 6 53 3 20 -3 46 -1 58 5 20 9 317 35 399 35 18
-1 67 3 108 8 156 19 940 55 1465 68 461 12 1478 12 1685 1z m390 -738 c649
-22 915 -34 935 -42 11 -5 81 -11 155 -14 249 -11 625 -37 645 -46 11 -4 112
-15 225 -24 290 -23 412 -36 435 -46 11 -5 72 -14 135 -20 140 -14 330 -42
510 -75 74 -13 136 -24 138 -25 4 0 -7 -184 -19 -340 -5 -69 -19 -174 -30
-235 -10 -60 -29 -162 -40 -225 -11 -63 -24 -124 -29 -135 -5 -11 -23 -76 -40
-144 -17 -69 -39 -143 -49 -165 -10 -23 -26 -68 -36 -101 -9 -33 -24 -78 -34
-100 -10 -22 -30 -71 -45 -110 -42 -108 -181 -396 -215 -445 -10 -14 -30 -48
-44 -76 -14 -28 -60 -101 -101 -163 -42 -62 -76 -115 -76 -118 0 -8 -103 -142
-209 -273 -105 -129 -381 -412 -518 -531 -56 -49 -104 -89 -107 -89 -3 0 -49
-34 -103 -77 -105 -82 -346 -243 -375 -251 -10 -2 -18 -8 -18 -12 0 -5 -39
-28 -87 -52 -49 -23 -92 -49 -96 -55 -4 -7 -13 -13 -19 -13 -10 0 -73 -28
-213 -96 -99 -48 -180 -80 -330 -130 -71 -24 -138 -48 -148 -54 -18 -11 -305
-82 -382 -96 -22 -3 -44 -10 -50 -14 -11 -9 -233 -43 -400 -62 -236 -27 -973
-11 -1050 22 -11 5 -94 20 -184 35 -89 14 -170 30 -180 35 -9 6 -74 24 -146
41 -71 17 -143 37 -160 44 -16 8 -73 28 -125 45 -52 17 -113 39 -135 49 -22
10 -62 26 -90 35 -51 18 -173 74 -280 129 -33 17 -82 43 -110 57 -27 14 -52
28 -55 31 -3 4 -25 16 -50 29 -25 12 -77 44 -115 70 -39 26 -80 50 -93 54 -12
4 -22 11 -22 16 0 5 -15 17 -32 26 -47 24 -249 179 -365 280 -220 191 -528
516 -638 673 -22 32 -61 87 -88 123 -26 36 -47 68 -47 71 0 3 -11 18 -25 33
-14 15 -25 31 -25 36 0 5 -20 39 -44 76 -83 126 -296 549 -296 587 0 8 -4 15
-9 17 -5 1 -30 66 -56 143 -25 77 -53 154 -60 171 -8 16 -31 95 -51 175 -19
79 -40 153 -45 164 -34 78 -81 439 -104 806 l-7 96 99 17 c54 10 114 20 133
22 19 3 44 9 55 14 36 16 615 88 835 105 47 4 94 10 105 15 72 31 1445 107
2240 123 301 7 1562 -1 1855 -11z"/>
<path d="M3340 4833 c-36 -2 -155 -12 -265 -23 -110 -11 -256 -24 -324 -30
-68 -6 -131 -15 -140 -20 -9 -5 -56 -21 -106 -36 -90 -27 -222 -91 -245 -119
-7 -8 -19 -15 -26 -15 -8 0 -19 -11 -24 -24 -5 -13 -13 -27 -19 -30 -6 -4 -26
-35 -45 -69 l-34 -62 2 -205 c3 -165 8 -225 25 -310 13 -58 26 -107 29 -110 4
-3 15 -27 25 -55 10 -27 25 -67 33 -87 7 -21 34 -69 59 -108 25 -38 45 -73 45
-76 0 -4 26 -38 58 -77 61 -76 201 -203 248 -227 16 -8 52 -29 80 -47 28 -18
75 -42 105 -54 30 -12 75 -30 100 -40 142 -57 439 -65 619 -16 273 75 507 264
663 538 31 55 77 174 77 200 0 11 4 19 8 19 11 0 29 94 43 219 8 75 8 136 0
225 -10 112 -43 278 -61 301 -4 6 -10 32 -13 58 -12 85 -79 180 -168 238 -33
21 -66 32 -120 39 -67 8 -469 11 -629 3z m655 -208 c15 -11 36 -42 47 -70 11
-27 29 -69 39 -91 72 -156 89 -459 37 -649 -7 -22 -15 -44 -19 -50 -4 -5 -16
-36 -28 -68 -11 -32 -36 -82 -55 -112 -20 -29 -36 -58 -36 -64 0 -6 -4 -11
-10 -11 -5 0 -10 -6 -10 -12 0 -7 -17 -29 -37 -48 -21 -20 -45 -45 -53 -58 -8
-12 -19 -22 -23 -22 -5 0 -26 -15 -46 -33 -66 -59 -185 -126 -272 -152 -343
-103 -691 -8 -945 257 -33 34 -69 77 -80 93 -10 17 -21 32 -24 35 -15 15 -69
119 -121 235 -50 113 -73 357 -49 526 l13 90 57 39 c61 42 108 64 185 87 28 8
55 19 61 24 7 6 81 16 165 24 85 8 222 22 304 30 214 21 228 22 567 21 290 -1
308 -2 333 -21z"/>
<path d="M6823 4819 c-132 -17 -272 -157 -293 -292 -4 -28 -17 -88 -29 -132
-11 -44 -21 -92 -21 -107 0 -15 -4 -29 -9 -32 -15 -10 -23 -200 -11 -307 16
-153 77 -347 144 -457 23 -37 48 -80 56 -96 21 -40 168 -194 232 -243 78 -60
215 -129 336 -171 l107 -36 185 0 c199 -1 282 11 384 58 28 13 63 26 77 29 14
4 60 29 103 57 42 27 80 50 85 50 4 0 45 32 90 71 92 79 210 221 242 289 12
25 27 52 34 60 7 8 25 44 40 80 15 36 34 80 42 98 35 81 56 224 58 400 1 95 5
175 8 179 15 14 5 52 -34 126 -22 43 -47 81 -55 84 -8 3 -11 9 -8 14 3 5 -3
12 -13 16 -10 4 -25 15 -34 25 -40 45 -264 138 -369 154 -25 4 -49 10 -55 14
-5 4 -55 11 -110 14 -55 4 -181 16 -280 27 -99 10 -212 19 -252 19 -39 0 -75
5 -78 10 -7 12 -479 11 -572 -1z m677 -193 c30 -4 147 -15 260 -26 113 -11
232 -23 265 -26 74 -7 225 -49 285 -79 160 -80 154 -74 170 -192 24 -176 -4
-458 -54 -538 -7 -11 -22 -45 -35 -75 -75 -181 -278 -388 -461 -469 -158 -71
-182 -78 -300 -91 -101 -11 -246 -2 -315 19 -88 27 -208 83 -266 124 -74 52
-206 181 -229 225 -8 15 -30 51 -48 78 -18 28 -44 84 -58 125 -14 41 -32 88
-39 104 -34 77 -46 428 -16 458 6 6 11 20 11 32 0 30 63 212 92 265 43 80 49
81 388 76 162 -2 320 -7 350 -10z"/>
<path d="M4720 3040 c-93 -7 -280 -42 -303 -57 -7 -4 -43 -17 -82 -29 -38 -12
-90 -30 -115 -39 -53 -20 -207 -120 -233 -152 -10 -13 -24 -23 -31 -23 -15 0
-156 -145 -156 -160 0 -5 -8 -19 -17 -29 -22 -27 -72 -186 -72 -234 -1 -52 11
-72 64 -103 52 -30 95 -28 182 12 29 13 65 26 80 30 16 3 50 13 77 21 44 14
50 14 60 0 7 -8 33 -25 60 -37 42 -20 58 -22 142 -17 52 3 100 10 107 15 7 6
45 20 85 32 l72 22 40 -36 c22 -20 44 -36 49 -36 36 0 168 24 178 32 7 5 17 7
23 3 6 -4 16 -2 23 3 7 5 35 15 62 21 67 16 248 72 260 81 6 4 35 12 65 19 51
12 61 11 130 -12 41 -14 116 -37 165 -52 50 -15 95 -31 100 -35 17 -14 217
-52 282 -53 56 -2 65 1 92 27 l31 29 91 -28 c127 -39 268 -48 324 -21 22 10
45 25 50 33 9 12 23 10 95 -11 47 -13 99 -32 116 -40 17 -9 56 -21 85 -27 47
-9 60 -8 102 10 51 22 67 47 67 104 0 50 -54 211 -84 249 -14 19 -26 40 -26
46 0 14 -170 172 -186 172 -7 0 -14 5 -16 12 -8 24 -227 148 -261 148 -7 0
-25 7 -41 15 -60 32 -293 83 -426 95 -114 10 -1175 9 -1310 0z m1350 -191
c128 -20 316 -71 388 -105 41 -19 77 -34 81 -34 16 0 148 -104 214 -169 64
-62 104 -117 94 -127 -7 -7 -246 65 -302 91 -79 37 -125 37 -160 -1 -14 -15
-25 -37 -25 -49 0 -13 -6 -25 -14 -28 -13 -5 -151 31 -201 53 -39 16 -142 40
-175 40 -26 0 -42 -9 -72 -40 -37 -40 -38 -41 -79 -30 -23 6 -49 15 -58 20
-26 14 -132 48 -196 64 -33 8 -80 22 -105 31 -54 20 -131 14 -195 -15 -24 -11
-51 -20 -60 -20 -9 0 -62 -15 -118 -34 -122 -40 -187 -53 -187 -36 0 25 -54
60 -94 60 -45 0 -333 -74 -350 -91 -14 -13 -36 10 -36 37 0 13 -4 24 -10 24
-5 0 -10 7 -10 15 0 42 -90 46 -174 7 -69 -33 -296 -98 -296 -85 0 29 184 223
212 223 5 0 27 13 47 29 47 37 111 69 175 88 28 8 56 19 61 24 15 11 187 50
265 59 105 12 1306 11 1380 -1z"/>
</g>
</svg>
